<svg width="1440" height="81" viewBox="0 0 1440 81" fill="none" xmlns="http://www.w3.org/2000/svg">
<g filter="url(#filter0_d_14_332)">
<rect width="1440" height="72" fill="#1A1831"/>
<circle cx="602.397" cy="17.8965" r="5.17241" fill="#ECECEC"/>
<circle cx="614.466" cy="17.8965" r="5.17241" fill="#ECECEC"/>
<circle cx="626.534" cy="17.8965" r="5.17241" fill="#ECECEC"/>
<circle cx="638.603" cy="17.8965" r="5.17241" fill="#20615B"/>
<circle cx="602.397" cy="29.9655" r="5.17241" fill="#ECECEC"/>
<circle cx="614.466" cy="29.9655" r="5.17241" fill="#ECECEC"/>
<circle cx="626.534" cy="29.9655" r="5.17241" fill="#20615B"/>
<circle cx="638.603" cy="29.9655" r="5.17241" fill="#ECECEC"/>
<circle cx="602.397" cy="42.0345" r="5.17241" fill="#ECECEC"/>
<circle cx="614.466" cy="42.0345" r="5.17241" fill="#20615B"/>
<circle cx="626.534" cy="42.0345" r="5.17241" fill="#ECECEC"/>
<circle cx="638.603" cy="42.0345" r="5.17241" fill="#ECECEC"/>
<circle cx="602.397" cy="54.1034" r="5.17241" fill="#20615B"/>
<circle cx="614.466" cy="54.1034" r="5.17241" fill="#ECECEC"/>
<circle cx="626.534" cy="54.1034" r="5.17241" fill="#ECECEC"/>
<circle cx="638.603" cy="54.1034" r="5.17241" fill="#ECECEC"/>
<path d="M676.244 51.6C674.164 51.6 672.297 51.28 670.644 50.64C668.99 50 667.59 49.0667 666.444 47.84C665.297 46.5867 664.417 45.0667 663.804 43.28C663.19 41.4933 662.884 39.44 662.884 37.12C662.884 34.8 663.23 32.7467 663.924 30.96C664.644 29.1733 665.617 27.6667 666.844 26.44C668.07 25.1867 669.51 24.24 671.164 23.6C672.817 22.96 674.59 22.64 676.484 22.64C677.63 22.64 678.67 22.7333 679.604 22.92C680.537 23.08 681.35 23.2667 682.044 23.48C682.737 23.6933 683.31 23.92 683.764 24.16C684.217 24.4 684.537 24.5733 684.724 24.68L683.244 28.8C682.604 28.4 681.684 28.0267 680.484 27.68C679.31 27.3067 678.03 27.12 676.644 27.12C675.444 27.12 674.324 27.3333 673.284 27.76C672.244 28.16 671.337 28.7733 670.564 29.6C669.817 30.4267 669.23 31.4667 668.804 32.72C668.377 33.9733 668.164 35.4267 668.164 37.08C668.164 38.5467 668.324 39.8933 668.644 41.12C668.99 42.3467 669.51 43.4133 670.204 44.32C670.897 45.2 671.777 45.8933 672.844 46.4C673.91 46.88 675.19 47.12 676.684 47.12C678.47 47.12 679.924 46.9467 681.044 46.6C682.164 46.2267 683.03 45.88 683.644 45.56L685.004 49.68C684.684 49.8933 684.244 50.1067 683.684 50.32C683.15 50.5333 682.51 50.7467 681.764 50.96C681.017 51.1467 680.177 51.2933 679.244 51.4C678.31 51.5333 677.31 51.6 676.244 51.6ZM707.604 40.52C707.604 42.1733 707.364 43.68 706.884 45.04C706.404 46.4 705.724 47.56 704.844 48.52C703.964 49.48 702.897 50.2267 701.644 50.76C700.417 51.2933 699.057 51.56 697.564 51.56C696.07 51.56 694.71 51.2933 693.484 50.76C692.257 50.2267 691.204 49.48 690.324 48.52C689.444 47.56 688.75 46.4 688.244 45.04C687.764 43.68 687.524 42.1733 687.524 40.52C687.524 38.8667 687.764 37.3733 688.244 36.04C688.75 34.68 689.444 33.52 690.324 32.56C691.23 31.6 692.297 30.8667 693.524 30.36C694.75 29.8267 696.097 29.56 697.564 29.56C699.03 29.56 700.377 29.8267 701.604 30.36C702.857 30.8667 703.924 31.6 704.804 32.56C705.684 33.52 706.364 34.68 706.844 36.04C707.35 37.3733 707.604 38.8667 707.604 40.52ZM702.644 40.52C702.644 38.44 702.19 36.8 701.284 35.6C700.404 34.3733 699.164 33.76 697.564 33.76C695.964 33.76 694.71 34.3733 693.804 35.6C692.924 36.8 692.484 38.44 692.484 40.52C692.484 42.6267 692.924 44.2933 693.804 45.52C694.71 46.7467 695.964 47.36 697.564 47.36C699.164 47.36 700.404 46.7467 701.284 45.52C702.19 44.2933 702.644 42.6267 702.644 40.52ZM712.59 30.76C713.523 30.4933 714.736 30.24 716.23 30C717.723 29.76 719.376 29.64 721.19 29.64C722.896 29.64 724.323 29.88 725.47 30.36C726.616 30.8133 727.523 31.4667 728.19 32.32C728.883 33.1467 729.363 34.16 729.63 35.36C729.923 36.5333 730.07 37.8267 730.07 39.24V51H725.23V40C725.23 38.88 725.15 37.9333 724.99 37.16C724.856 36.36 724.616 35.72 724.27 35.24C723.95 34.7333 723.496 34.3733 722.91 34.16C722.35 33.92 721.656 33.8 720.83 33.8C720.216 33.8 719.576 33.84 718.91 33.92C718.243 34 717.75 34.0667 717.43 34.12V51H712.59V30.76ZM735.988 30.76C736.922 30.4933 738.135 30.24 739.628 30C741.122 29.76 742.775 29.64 744.588 29.64C746.295 29.64 747.722 29.88 748.868 30.36C750.015 30.8133 750.922 31.4667 751.588 32.32C752.282 33.1467 752.762 34.16 753.028 35.36C753.322 36.5333 753.468 37.8267 753.468 39.24V51H748.628V40C748.628 38.88 748.548 37.9333 748.388 37.16C748.255 36.36 748.015 35.72 747.668 35.24C747.348 34.7333 746.895 34.3733 746.308 34.16C745.748 33.92 745.055 33.8 744.228 33.8C743.615 33.8 742.975 33.84 742.308 33.92C741.642 34 741.148 34.0667 740.828 34.12V51H735.988V30.76ZM758.227 40.64C758.227 38.8 758.493 37.1867 759.027 35.8C759.587 34.4133 760.32 33.2667 761.227 32.36C762.133 31.4267 763.173 30.7333 764.347 30.28C765.52 29.8 766.72 29.56 767.947 29.56C770.827 29.56 773.067 30.4533 774.667 32.24C776.293 34.0267 777.107 36.6933 777.107 40.24C777.107 40.5067 777.093 40.8133 777.067 41.16C777.067 41.48 777.053 41.7733 777.027 42.04H763.227C763.36 43.72 763.947 45.0267 764.987 45.96C766.053 46.8667 767.587 47.32 769.587 47.32C770.76 47.32 771.827 47.2133 772.787 47C773.773 46.7867 774.547 46.56 775.107 46.32L775.747 50.28C775.48 50.4133 775.107 50.56 774.627 50.72C774.173 50.8533 773.64 50.9733 773.027 51.08C772.44 51.2133 771.8 51.32 771.107 51.4C770.413 51.48 769.707 51.52 768.987 51.52C767.147 51.52 765.547 51.2533 764.187 50.72C762.827 50.16 761.707 49.4 760.827 48.44C759.947 47.4533 759.293 46.3067 758.867 45C758.44 43.6667 758.227 42.2133 758.227 40.64ZM772.267 38.48C772.267 37.8133 772.173 37.1867 771.987 36.6C771.8 35.9867 771.52 35.4667 771.147 35.04C770.8 34.5867 770.36 34.24 769.827 34C769.32 33.7333 768.707 33.6 767.987 33.6C767.24 33.6 766.587 33.7467 766.027 34.04C765.467 34.3067 764.987 34.6667 764.587 35.12C764.213 35.5733 763.92 36.0933 763.707 36.68C763.493 37.2667 763.347 37.8667 763.267 38.48H772.267ZM781.078 40.56C781.078 39.0133 781.318 37.5733 781.798 36.24C782.278 34.88 782.958 33.7067 783.838 32.72C784.745 31.7333 785.838 30.96 787.118 30.4C788.398 29.84 789.838 29.56 791.438 29.56C793.412 29.56 795.278 29.92 797.038 30.64L795.998 34.6C795.438 34.36 794.798 34.16 794.078 34C793.385 33.84 792.638 33.76 791.838 33.76C789.945 33.76 788.505 34.36 787.518 35.56C786.532 36.7333 786.038 38.4 786.038 40.56C786.038 42.64 786.505 44.2933 787.438 45.52C788.372 46.72 789.945 47.32 792.158 47.32C792.985 47.32 793.798 47.24 794.598 47.08C795.398 46.92 796.092 46.72 796.678 46.48L797.358 50.48C796.825 50.7467 796.012 50.9867 794.918 51.2C793.852 51.4133 792.745 51.52 791.598 51.52C789.812 51.52 788.252 51.2533 786.918 50.72C785.612 50.16 784.518 49.4 783.638 48.44C782.785 47.4533 782.145 46.2933 781.718 44.96C781.292 43.6 781.078 42.1333 781.078 40.56ZM800.865 24.56L805.705 23.76V30.08H813.145V34.12H805.705V42.64C805.705 44.32 805.972 45.52 806.505 46.24C807.039 46.96 807.945 47.32 809.225 47.32C810.105 47.32 810.879 47.2267 811.545 47.04C812.239 46.8533 812.785 46.68 813.185 46.52L813.985 50.36C813.425 50.6 812.692 50.84 811.785 51.08C810.879 51.3467 809.812 51.48 808.585 51.48C807.092 51.48 805.839 51.28 804.825 50.88C803.839 50.48 803.052 49.9067 802.465 49.16C801.879 48.3867 801.465 47.4667 801.225 46.4C800.985 45.3067 800.865 44.0667 800.865 42.68V24.56ZM837.56 29.24C836.92 30.0133 836.253 30.84 835.56 31.72C834.893 32.6 834.24 33.52 833.6 34.48C832.96 35.44 832.347 36.4267 831.76 37.44C831.173 38.4267 830.64 39.4133 830.16 40.4H837.56V29.24ZM842.28 23.28V40.4H845.4V44.36H842.28V51H837.56V44.36H825.4V40.92C825.933 39.7467 826.64 38.4 827.52 36.88C828.427 35.36 829.427 33.8 830.52 32.2C831.613 30.6 832.773 29.0267 834 27.48C835.227 25.9333 836.453 24.5333 837.68 23.28H842.28Z" fill="#20615B"/>
</g>
<defs>
<filter id="filter0_d_14_332" x="-12" y="-15" width="1464" height="96" filterUnits="userSpaceOnUse" color-interpolation-filters="sRGB">
<feFlood flood-opacity="0" result="BackgroundImageFix"/>
<feColorMatrix in="SourceAlpha" type="matrix" values="0 0 0 0 0 0 0 0 0 0 0 0 0 0 0 0 0 0 127 0" result="hardAlpha"/>
<feOffset dy="-3"/>
<feGaussianBlur stdDeviation="6"/>
<feComposite in2="hardAlpha" operator="out"/>
<feColorMatrix type="matrix" values="0 0 0 0 0.117647 0 0 0 0 0.117647 0 0 0 0 0.117647 0 0 0 1 0"/>
<feBlend mode="normal" in2="BackgroundImageFix" result="effect1_dropShadow_14_332"/>
<feBlend mode="normal" in="SourceGraphic" in2="effect1_dropShadow_14_332" result="shape"/>
</filter>
</defs>
</svg>
